<?xml version="1.0" encoding="utf-8"?>
<!-- Generator: Adobe Illustrator 24.1.0, SVG Export Plug-In . SVG Version: 6.00 Build 0)  -->
<svg version="1.1" id="Layer_1" xmlns="http://www.w3.org/2000/svg" xmlns:xlink="http://www.w3.org/1999/xlink" x="0px" y="0px"
	 viewBox="0 0 4000 1443" style="enable-background:new 0 0 4000 1443;" xml:space="preserve">
<style type="text/css">
	.st0{fill:#231F20;}
	.st1{fill:none;}
	.st2{font-family:'Lato-Bold';}
	.st3{font-size:346px;}
</style>
<g>
	<path class="st0" d="M360.9,446.13V288.08h771.4v0c-61.72,61.72-96.33,96.33-158.05,158.05H360.9z"/>
	<path class="st0" d="M565.94,650.53V492.48h566.36v0c-61.72,61.72-96.33,96.33-158.05,158.05H565.94z"/>
	
		<rect x="769.68" y="492.06" transform="matrix(-1.836970e-16 1 -1 -1.836970e-16 1624.3596 -73.0459)" class="st0" width="158.05" height="567.19"/>
	<path class="st0" d="M565.11,1058.84L565.11,1058.84c61.72-61.72,96.33-96.33,158.05-158.05h408.31v158.05H565.11z"/>
	
		<rect x="360.9" y="288.08" transform="matrix(-1 -1.224647e-16 1.224647e-16 -1 879.8463 1551.0771)" class="st0" width="158.05" height="974.92"/>
	
		<rect x="565.11" y="492.48" transform="matrix(-1 -1.224647e-16 1.224647e-16 -1 1288.271 1298.2157)" class="st0" width="158.05" height="313.26"/>
	
		<rect x="974.24" y="696.63" transform="matrix(-1 -1.224647e-16 1.224647e-16 -1 2106.54 1755.4674)" class="st0" width="158.05" height="362.21"/>
	<polygon class="st0" points="1303.53,1263 360.96,1263 360.96,1104.94 1145.48,1104.94 1177.76,1137.23 	"/>
	<g>
		
			<rect x="156.74" y="83.92" transform="matrix(-1 -1.224647e-16 1.224647e-16 -1 471.5387 1346.9235)" class="st0" width="158.05" height="1179.08"/>
		<polygon class="st0" points="1335.82,83.91 1335.82,1230.08 1177.76,1072.02 1177.76,83.91 		"/>
		
			<rect x="667.25" y="-426.59" transform="matrix(6.123234e-17 -1 1 6.123234e-17 583.3297 909.231)" class="st0" width="158.05" height="1179.08"/>
	</g>
	<rect x="1388.48" y="560.12" class="st1" width="2738.52" height="839.88"/>
	<text transform="matrix(1 0 0 1 1388.4805 817.1973)"><tspan x="0" y="0" class="st0 st2 st3">ACCURATE </tspan><tspan x="0" y="382" class="st0 st2 st3">CAD SOLUTION</tspan></text>
</g>
</svg>
